<svg width="140" height="140" viewBox="0 0 140 140" fill="none" xmlns="http://www.w3.org/2000/svg">
<path d="M54.9717 111.352C54.9732 111.855 55.0783 112.352 55.2804 112.813C55.4825 113.273 55.7774 113.687 56.1465 114.028C56.5157 114.369 56.9512 114.631 57.4259 114.796C57.9006 114.962 58.4042 115.027 58.9054 114.989C77.9563 113.626 95.9491 100.143 101.694 79.0853C101.995 77.8742 102.904 77.2668 104.115 77.2668C104.735 77.2918 105.321 77.5604 105.745 78.0145C106.169 78.4686 106.397 79.0715 106.38 79.6926C106.38 84.388 100.344 96.6591 91.7137 103.78C91.2738 104.15 90.9231 104.615 90.6876 105.14C90.4522 105.664 90.3381 106.235 90.3539 106.81C90.3627 107.277 90.4635 107.738 90.6508 108.166C90.838 108.595 91.1079 108.982 91.445 109.305C91.7821 109.629 92.1798 109.883 92.6152 110.053C93.0506 110.222 93.5152 110.304 93.9823 110.294C94.7385 110.294 95.9492 109.839 97.4616 108.476C103.497 103.02 115 87.7195 115 70.9022C115 46.2464 95.9385 25.0001 69.3362 25.0001C45.5989 25.0001 25.0356 44.3924 25.0356 66.8142C25.0356 81.6603 36.8297 92.8694 52.4013 92.8694C64.348 92.8694 75.3859 84.388 78.4107 72.7207C78.7125 71.5095 79.6178 70.9022 80.8285 70.9022C81.4494 70.9272 82.0355 71.1957 82.4601 71.6497C82.8846 72.1036 83.1135 72.7065 83.0971 73.328C83.0971 78.6307 73.1172 97.1243 52.8557 97.1243C48.0167 97.1243 41.9705 95.7605 37.735 93.3347C37.168 93.0598 36.5504 92.9051 35.9208 92.8801C35.4388 92.8615 34.9581 92.943 34.509 93.1193C34.06 93.2956 33.6522 93.563 33.3114 93.9046C32.9707 94.2461 32.7042 94.6546 32.5288 95.1042C32.3535 95.5538 32.273 96.0348 32.2924 96.517C32.312 97.1347 32.4889 97.7372 32.8064 98.2674C33.1239 98.7976 33.5714 99.2379 34.1066 99.5466C39.7019 102.743 46.3551 104.395 53.1575 104.395C70.0924 104.395 85.5148 92.8801 90.0521 75.9136C90.3539 74.7025 91.2628 74.0952 92.4699 74.0952C93.0908 74.1202 93.6769 74.3887 94.1015 74.8426C94.526 75.2966 94.7549 75.8995 94.7385 76.521C94.7385 83.4894 82.3409 105.911 58.451 107.73C57.5267 107.798 56.6602 108.206 56.0181 108.875C55.3759 109.543 55.0033 110.426 54.9717 111.352V111.352Z" fill="#4F43DD"/>
<path d="M78.6448 53.3319C81.9056 53.3076 85.1064 54.2091 87.8756 55.9318C88.1554 54.3996 88.3097 52.8471 88.3371 51.2897C88.3371 44.0975 82.8555 37.6548 76.1809 37.6548C70.9904 37.6548 67.7454 41.9559 67.7454 47.2692C67.7207 50.1396 68.7288 52.923 70.5857 55.1113C73.1013 53.9114 75.858 53.3027 78.6448 53.3319V53.3319Z" fill="white"/>
<path d="M94.2839 79.3871C95.2105 76.219 95.6188 74.0205 95.6188 72.5927C95.5906 71.9761 95.3264 71.394 94.8809 70.9669C94.4355 70.5398 93.8429 70.3004 93.2259 70.2983C92.6511 70.309 92.0964 70.5116 91.65 70.874C91.2035 71.2363 90.891 71.7375 90.762 72.2979C90.5099 73.3386 89.9703 76.1586 89.4377 77.9487C89.6579 77.2786 89.859 76.5978 90.0413 75.9065C90.3431 74.6918 91.2519 74.088 92.459 74.088C93.0796 74.1121 93.6658 74.3798 94.0904 74.8332C94.5151 75.2866 94.744 75.8891 94.7277 76.5102C94.6992 77.4866 94.5428 78.455 94.2626 79.3907L94.2839 79.3871Z" fill="#352D8E"/>
<path d="M107.136 76.077C107.107 75.4613 106.843 74.8802 106.398 74.4533C105.954 74.0265 105.363 73.7865 104.747 73.7826C104.172 73.7941 103.619 73.997 103.173 74.3593C102.727 74.7215 102.415 75.2223 102.286 75.7822C102.031 76.8477 101.48 79.7104 100.941 81.4969H100.966C101.228 80.7013 101.473 79.8951 101.676 79.0746C101.977 77.8599 102.886 77.2561 104.097 77.2561C104.717 77.2802 105.303 77.5481 105.727 78.0016C106.151 78.4551 106.379 79.0576 106.362 79.6784C106.345 80.4324 106.241 81.182 106.053 81.9124C106.806 79.27 107.136 77.3592 107.136 76.077Z" fill="#352D8E"/>
<path d="M78.6449 53.332C80.2654 53.3287 81.8789 53.545 83.4414 53.9748C84.2617 52.8557 84.6716 51.4881 84.6022 50.1021C84.5327 48.7161 83.9881 47.3963 83.06 46.3648C82.1319 45.3334 80.877 44.6533 79.5064 44.439C78.1359 44.2246 76.7333 44.4891 75.5349 45.188L78.0201 49.2795L73.3656 47.2657C72.7352 48.2834 72.4191 49.4646 72.457 50.6613C72.4949 51.858 72.8851 53.0169 73.5787 53.9926C75.2304 53.5473 76.9343 53.3251 78.6449 53.332V53.332Z" fill="#163B36"/>
<path d="M42.787 79.6643C44.7478 79.6643 46.3373 78.0741 46.3373 76.1126C46.3373 74.151 44.7478 72.5609 42.787 72.5609C40.8263 72.5609 39.2368 74.151 39.2368 76.1126C39.2368 78.0741 40.8263 79.6643 42.787 79.6643Z" fill="#352D8E"/>
<path d="M42.787 65.4575C44.7478 65.4575 46.3373 63.8673 46.3373 61.9058C46.3373 59.9442 44.7478 58.3541 42.787 58.3541C40.8263 58.3541 39.2368 59.9442 39.2368 61.9058C39.2368 63.8673 40.8263 65.4575 42.787 65.4575Z" fill="#352D8E"/>
<path d="M35.6864 72.5609C37.6472 72.5609 39.2367 70.9707 39.2367 69.0092C39.2367 67.0476 37.6472 65.4575 35.6864 65.4575C33.7256 65.4575 32.1361 67.0476 32.1361 69.0092C32.1361 70.9707 33.7256 72.5609 35.6864 72.5609Z" fill="#352D8E"/>
<path d="M51.6627 92.8623H52.3727C64.3195 92.8623 75.3573 84.3809 78.3822 72.7136C78.6839 71.5025 79.5893 70.8951 80.7999 70.8951C81.4208 70.9201 82.007 71.1886 82.4315 71.6426C82.8561 72.0966 83.0849 72.6995 83.0685 73.3209C83.0144 74.5607 82.7341 75.78 82.2413 76.9188C82.327 76.7866 82.4018 76.6476 82.465 76.5032C83.3633 74.4492 83.8275 72.2315 83.8283 69.9895C83.8283 66.5052 81.407 64.2322 77.9313 64.2322C71.8709 64.2322 70.6567 69.5242 68.1005 75.182C65.4485 81.0565 60.5775 87.4105 48.2935 87.4105C35.5302 87.4105 22.4154 78.4709 25.6142 60.2933C25.6533 60.066 25.6852 59.8636 25.7101 59.6753C25.2413 62.0237 25.0035 64.4124 25 66.8071C25.0355 81.4401 36.4639 92.5214 51.6627 92.8623Z" fill="#352D8E"/>
</svg>
